<?xml version="1.0" encoding="UTF-8"?>
<svg width="8px" height="8px" viewBox="0 0 8 8" version="1.1" xmlns="http://www.w3.org/2000/svg" xmlns:xlink="http://www.w3.org/1999/xlink">
    <title>Combined Shape</title>
    <g id="Page-1" stroke="none" stroke-width="1" fill="none" fill-rule="evenodd">
        <g id="dashboard" transform="translate(-776.000000, -535.000000)" fill="#DE3434">
            <g id="Group" transform="translate(671.000000, 499.000000)">
                <path d="M112.898264,36.1017359 C113.033912,36.2373837 113.033912,36.4573122 112.898264,36.59296 L106.185,43.305 L111.268226,43.3053041 C111.460061,43.3053041 111.615574,43.4608171 111.615574,43.6526521 C111.615574,43.844487 111.460061,44 111.268226,44 L105.347348,44 L105.327306,43.9994249 C105.315887,43.998769 105.304495,43.997552 105.293174,43.9957741 L105.347348,44 C105.316359,44 105.286318,43.9959419 105.257728,43.9883282 C105.245394,43.9850389 105.2327,43.980893 105.220231,43.9759986 C105.210503,43.9721639 105.201342,43.968074 105.1924,43.9636099 C105.180296,43.9576212 105.168006,43.9505596 105.156094,43.942687 C105.116864,43.9167027 105.083297,43.8831356 105.057431,43.844029 L105.101736,43.8982641 C105.074329,43.8708577 105.05246,43.840011 105.036128,43.807114 C105.031926,43.7986585 105.027836,43.7894973 105.024141,43.7801371 C105.019107,43.7673004 105.014961,43.7546059 105.011564,43.7417546 C105.008603,43.7307486 105.006112,43.7189892 105.004231,43.7070271 C105.002448,43.6955049 105.001231,43.6841128 105.000575,43.6726944 C105.000198,43.6663082 105,43.6595033 105,43.6526521 L105,37.7317743 C105,37.5399393 105.155513,37.3844264 105.347348,37.3844264 C105.539183,37.3844264 105.694696,37.5399393 105.694696,37.7317743 L105.694,42.814 L112.40704,36.1017359 C112.542688,35.966088 112.762616,35.966088 112.898264,36.1017359 Z" id="Combined-Shape" transform="translate(109.000000, 40.000000) scale(-1, 1) translate(-109.000000, -40.000000) "></path>
            </g>
        </g>
    </g>
</svg>