<?xml version="1.0" encoding="UTF-8"?>
<svg width="12px" height="12px" viewBox="0 0 12 12" version="1.1" xmlns="http://www.w3.org/2000/svg" xmlns:xlink="http://www.w3.org/1999/xlink">
    <title>Combined Shape Copy 2</title>
    <g id="Symbols" stroke="none" stroke-width="1" fill="none" fill-rule="evenodd">
        <g id="bank-card" transform="translate(-84.000000, -152.000000)" fill="#FFFFFF">
            <path d="M95.3693837,152.388531 C95.5646459,152.583794 95.5646459,152.900376 95.3693837,153.095638 L85.707,162.757085 L93.0229779,162.757915 C93.2991203,162.757915 93.5229779,162.981773 93.5229779,163.257915 C93.5229779,163.534058 93.2991203,163.757915 93.0229779,163.757915 L84.5,163.757915 L84.4884592,163.757783 C84.4675988,163.757304 84.4467627,163.755528 84.4260822,163.752453 L84.5,163.757915 C84.463903,163.757915 84.4286993,163.75409 84.3947723,163.746823 C84.3795257,163.743519 84.3641653,163.739467 84.3489884,163.734674 C84.3352631,163.730357 84.3219749,163.725507 84.3089634,163.720123 C84.2954611,163.714564 84.2817243,163.708166 84.2682418,163.70111 C84.2559533,163.694622 84.2443175,163.687896 84.2329897,163.680727 C84.2211654,163.673306 84.2093908,163.665141 84.1979075,163.656413 C84.1847292,163.646362 84.1721101,163.635758 84.1600444,163.624565 C84.1553124,163.620173 84.1508487,163.615871 84.1464466,163.611469 L84.1314531,163.595815 C84.1222673,163.585801 84.1134843,163.575412 84.1051298,163.564673 L84.1464466,163.611469 C84.1196791,163.584701 84.096581,163.555654 84.0771523,163.524951 C84.0693184,163.512504 84.0618665,163.499489 84.054999,163.486124 C84.0493239,163.475142 84.0440193,163.463765 84.0391658,163.452244 C84.0330454,163.437723 84.0276606,163.42308 84.0229588,163.408134 C84.0183206,163.393266 84.014344,163.378146 84.0110857,163.362902 C84.008904,163.352927 84.0070279,163.342595 84.0054743,163.332159 C84.0023382,163.310821 84.0005544,163.289648 84.0001104,163.268453 C84.0000413,163.265406 84,163.261665 84,163.257915 L84,154.734937 C84,154.458795 84.2238576,154.234937 84.5,154.234937 C84.7761424,154.234937 85,154.458795 85,154.734937 L84.999,162.051085 L94.662277,152.388531 C94.8575391,152.193269 95.1741216,152.193269 95.3693837,152.388531 Z" id="Combined-Shape-Copy-2"></path>
        </g>
    </g>
</svg>