<?xml version="1.0" encoding="UTF-8"?>
<svg width="12px" height="12px" viewBox="0 0 12 12" version="1.1" xmlns="http://www.w3.org/2000/svg" xmlns:xlink="http://www.w3.org/1999/xlink">
    <title>Combined Shape</title>
    <g id="Page-1" stroke="none" stroke-width="1" fill="none" fill-rule="evenodd">
        <g id="dashboard" transform="translate(-259.000000, -300.000000)" fill="#A4A6B4">
            <path d="M270.369384,300.388531 C270.564646,300.583794 270.564646,300.900376 270.369384,301.095638 L260.707,310.757085 L268.022978,310.757915 C268.29912,310.757915 268.522978,310.981773 268.522978,311.257915 C268.522978,311.534058 268.29912,311.757915 268.022978,311.757915 L259.5,311.757915 L259.488459,311.757783 C259.467599,311.757304 259.446763,311.755528 259.426082,311.752453 L259.5,311.757915 C259.463903,311.757915 259.428699,311.75409 259.394772,311.746823 C259.379526,311.743519 259.364165,311.739467 259.348988,311.734674 C259.335263,311.730357 259.321975,311.725507 259.308963,311.720123 C259.295461,311.714564 259.281724,311.708166 259.268242,311.70111 C259.255953,311.694622 259.244318,311.687896 259.23299,311.680727 C259.221165,311.673306 259.209391,311.665141 259.197907,311.656413 C259.184729,311.646362 259.17211,311.635758 259.160044,311.624565 C259.155312,311.620173 259.150849,311.615871 259.146447,311.611469 L259.131453,311.595815 C259.122267,311.585801 259.113484,311.575412 259.10513,311.564673 L259.146447,311.611469 C259.119679,311.584701 259.096581,311.555654 259.077152,311.524951 C259.069318,311.512504 259.061866,311.499489 259.054999,311.486124 C259.049324,311.475142 259.044019,311.463765 259.039166,311.452244 C259.033045,311.437723 259.027661,311.42308 259.022959,311.408134 C259.018321,311.393266 259.014344,311.378146 259.011086,311.362902 C259.008904,311.352927 259.007028,311.342595 259.005474,311.332159 C259.002338,311.310821 259.000554,311.289648 259.00011,311.268453 C259.000041,311.265406 259,311.261665 259,311.257915 L259,302.734937 C259,302.458795 259.223858,302.234937 259.5,302.234937 C259.776142,302.234937 260,302.458795 260,302.734937 L259.999,310.051085 L269.662277,300.388531 C269.857539,300.193269 270.174122,300.193269 270.369384,300.388531 Z" id="Combined-Shape"></path>
        </g>
    </g>
</svg>