<?xml version="1.0" encoding="UTF-8"?>
<svg width="10px" height="12px" viewBox="0 0 10 12" version="1.1" xmlns="http://www.w3.org/2000/svg" xmlns:xlink="http://www.w3.org/1999/xlink">
    <title>Group</title>
    <g id="Page-1" stroke="none" stroke-width="1" fill="none" fill-rule="evenodd">
        <g id="buy---step-1" transform="translate(-701.000000, -160.000000)" fill="#1ED184">
            <g id="Group-5" transform="translate(636.000000, 115.000000)">
                <g id="Group-2" transform="translate(0.000000, 43.000000)">
                    <g id="Group" transform="translate(65.000000, 2.000000)">
                        <path d="M3.87225326,2.34640502 L9.65419184,2.34640502 C9.88439381,2.34640502 10.0710094,2.53302058 10.0710094,2.76322254 C10.0710094,2.9934245 9.88439381,3.18004006 9.65419184,3.18004006 L3.87225326,3.18004006 C3.6420513,3.18004006 3.45543574,2.9934245 3.45543574,2.76322254 C3.45543574,2.53302058 3.6420513,2.34640502 3.87225326,2.34640502 Z" id="Rectangle" transform="translate(6.763223, 2.763223) rotate(225.000000) translate(-6.763223, -2.763223) "></path>
                        <path d="M-0.127746736,2.34640502 L5.65419184,2.34640502 C5.88439381,2.34640502 6.07100937,2.53302058 6.07100937,2.76322254 C6.07100937,2.9934245 5.88439381,3.18004006 5.65419184,3.18004006 L-0.127746736,3.18004006 C-0.357948697,3.18004006 -0.544564258,2.9934245 -0.544564258,2.76322254 C-0.544564258,2.53302058 -0.357948697,2.34640502 -0.127746736,2.34640502 Z" id="Rectangle" transform="translate(2.763223, 2.763223) scale(-1, 1) rotate(225.000000) translate(-2.763223, -2.763223) "></path>
                        <path d="M-0.320838858,5.60466458 L9.80201253,5.60466458 C10.051398,5.60466458 10.2535649,5.80683144 10.2535649,6.05621691 C10.2535649,6.30560237 10.051398,6.50776924 9.80201253,6.50776924 L-0.320838858,6.50776924 C-0.570224323,6.50776924 -0.772391186,6.30560237 -0.772391186,6.05621691 C-0.772391186,5.80683144 -0.570224323,5.60466458 -0.320838858,5.60466458 Z" id="Rectangle" transform="translate(4.740587, 6.056217) rotate(90.000000) translate(-4.740587, -6.056217) "></path>
                    </g>
                </g>
            </g>
        </g>
    </g>
</svg>