<?xml version="1.0" encoding="UTF-8"?>
<svg width="12px" height="12px" viewBox="0 0 12 12" version="1.1" xmlns="http://www.w3.org/2000/svg" xmlns:xlink="http://www.w3.org/1999/xlink">
    <title>Combined Shape Copy</title>
    <g id="Symbols" stroke="none" stroke-width="1" fill="none" fill-rule="evenodd">
        <g id="bank-card" transform="translate(-36.000000, -152.000000)" fill="#FFFFFF">
            <path d="M47.6114686,152.388531 C47.8067307,152.583794 47.8067307,152.900376 47.6114686,153.095638 L37.9490848,162.757085 L45.2650628,162.757915 C45.5412051,162.757915 45.7650628,162.981773 45.7650628,163.257915 C45.7650628,163.534058 45.5412051,163.757915 45.2650628,163.757915 L36.7420848,163.757915 L36.7305441,163.757783 C36.7096836,163.757304 36.6888475,163.755528 36.6681671,163.752453 L36.7420848,163.757915 C36.7059878,163.757915 36.6707842,163.75409 36.6368572,163.746823 C36.6216106,163.743519 36.6062501,163.739467 36.5910732,163.734674 C36.577348,163.730357 36.5640598,163.725507 36.5510483,163.720123 C36.537546,163.714564 36.5238091,163.708166 36.5103266,163.70111 C36.4980382,163.694622 36.4864024,163.687896 36.4750745,163.680727 C36.4632502,163.673306 36.4514757,163.665141 36.4399923,163.656413 C36.426814,163.646362 36.4141949,163.635758 36.4021292,163.624565 C36.3973972,163.620173 36.3929335,163.615871 36.3885314,163.611469 L36.3735379,163.595815 C36.3643521,163.585801 36.3555691,163.575412 36.3472146,163.564673 L36.3885314,163.611469 C36.3617639,163.584701 36.3386658,163.555654 36.3192371,163.524951 C36.3114032,163.512504 36.3039513,163.499489 36.2970838,163.486124 C36.2914087,163.475142 36.2861041,163.463765 36.2812506,163.452244 C36.2751302,163.437723 36.2697454,163.42308 36.2650437,163.408134 C36.2604054,163.393266 36.2564288,163.378146 36.2531705,163.362902 C36.2509889,163.352927 36.2491127,163.342595 36.2475591,163.332159 C36.244423,163.310821 36.2426392,163.289648 36.2421952,163.268453 C36.2421261,163.265406 36.2420848,163.261665 36.2420848,163.257915 L36.2420848,154.734937 C36.2420848,154.458795 36.4659425,154.234937 36.7420848,154.234937 C37.0182272,154.234937 37.2420848,154.458795 37.2420848,154.734937 L37.2410848,162.051085 L46.9043618,152.388531 C47.0996239,152.193269 47.4162064,152.193269 47.6114686,152.388531 Z" id="Combined-Shape-Copy" transform="translate(42.000000, 158.000000) scale(-1, -1) translate(-42.000000, -158.000000) "></path>
        </g>
    </g>
</svg>