<?xml version="1.0" encoding="UTF-8"?>
<svg width="12px" height="12px" viewBox="0 0 12 12" version="1.1" xmlns="http://www.w3.org/2000/svg" xmlns:xlink="http://www.w3.org/1999/xlink">
    <title>Combined Shape</title>
    <g id="Page-1" stroke="none" stroke-width="1" fill="none" fill-rule="evenodd">
        <g id="dashboard" transform="translate(-211.000000, -300.000000)" fill="#A4A6B4">
            <path d="M222.611469,300.388531 C222.806731,300.583794 222.806731,300.900376 222.611469,301.095638 L212.949085,310.757085 L220.265063,310.757915 C220.541205,310.757915 220.765063,310.981773 220.765063,311.257915 C220.765063,311.534058 220.541205,311.757915 220.265063,311.757915 L211.742085,311.757915 L211.730544,311.757783 C211.709684,311.757304 211.688847,311.755528 211.668167,311.752453 L211.742085,311.757915 C211.705988,311.757915 211.670784,311.75409 211.636857,311.746823 C211.621611,311.743519 211.60625,311.739467 211.591073,311.734674 C211.577348,311.730357 211.56406,311.725507 211.551048,311.720123 C211.537546,311.714564 211.523809,311.708166 211.510327,311.70111 C211.498038,311.694622 211.486402,311.687896 211.475075,311.680727 C211.46325,311.673306 211.451476,311.665141 211.439992,311.656413 C211.426814,311.646362 211.414195,311.635758 211.402129,311.624565 C211.397397,311.620173 211.392933,311.615871 211.388531,311.611469 L211.373538,311.595815 C211.364352,311.585801 211.355569,311.575412 211.347215,311.564673 L211.388531,311.611469 C211.361764,311.584701 211.338666,311.555654 211.319237,311.524951 C211.311403,311.512504 211.303951,311.499489 211.297084,311.486124 C211.291409,311.475142 211.286104,311.463765 211.281251,311.452244 C211.27513,311.437723 211.269745,311.42308 211.265044,311.408134 C211.260405,311.393266 211.256429,311.378146 211.253171,311.362902 C211.250989,311.352927 211.249113,311.342595 211.247559,311.332159 C211.244423,311.310821 211.242639,311.289648 211.242195,311.268453 C211.242126,311.265406 211.242085,311.261665 211.242085,311.257915 L211.242085,302.734937 C211.242085,302.458795 211.465942,302.234937 211.742085,302.234937 C212.018227,302.234937 212.242085,302.458795 212.242085,302.734937 L212.241085,310.051085 L221.904362,300.388531 C222.099624,300.193269 222.416206,300.193269 222.611469,300.388531 Z" id="Combined-Shape" transform="translate(217.000000, 306.000000) scale(-1, -1) translate(-217.000000, -306.000000) "></path>
        </g>
    </g>
</svg>