<?xml version="1.0" encoding="UTF-8"?>
<svg width="8px" height="8px" viewBox="0 0 8 8" version="1.1" xmlns="http://www.w3.org/2000/svg" xmlns:xlink="http://www.w3.org/1999/xlink">
    <title>Combined Shape</title>
    <g id="Page-1" stroke="none" stroke-width="1" fill="none" fill-rule="evenodd">
        <g id="dashboard" transform="translate(-920.000000, -535.000000)" fill="#24C772">
            <g id="Group" transform="translate(671.000000, 499.000000)">
                <path d="M256.898264,36.1017359 C257.033912,36.2373837 257.033912,36.4573122 256.898264,36.59296 L250.185,43.305 L255.268226,43.3053041 C255.460061,43.3053041 255.615574,43.4608171 255.615574,43.6526521 C255.615574,43.844487 255.460061,44 255.268226,44 L249.347348,44 L249.327306,43.9994249 C249.315887,43.998769 249.304495,43.997552 249.293174,43.9957741 L249.347348,44 C249.316359,44 249.286318,43.9959419 249.257728,43.9883282 C249.245394,43.9850389 249.2327,43.980893 249.220231,43.9759986 C249.210503,43.9721639 249.201342,43.968074 249.1924,43.9636099 C249.180296,43.9576212 249.168006,43.9505596 249.156094,43.942687 C249.116864,43.9167027 249.083297,43.8831356 249.057431,43.844029 L249.101736,43.8982641 C249.074329,43.8708577 249.05246,43.840011 249.036128,43.807114 C249.031926,43.7986585 249.027836,43.7894973 249.024141,43.7801371 C249.019107,43.7673004 249.014961,43.7546059 249.011564,43.7417546 C249.008603,43.7307486 249.006112,43.7189892 249.004231,43.7070271 C249.002448,43.6955049 249.001231,43.6841128 249.000575,43.6726944 C249.000198,43.6663082 249,43.6595033 249,43.6526521 L249,37.7317743 C249,37.5399393 249.155513,37.3844264 249.347348,37.3844264 C249.539183,37.3844264 249.694696,37.5399393 249.694696,37.7317743 L249.694,42.814 L256.40704,36.1017359 C256.542688,35.966088 256.762616,35.966088 256.898264,36.1017359 Z" id="Combined-Shape" transform="translate(253.000000, 40.000000) scale(-1, -1) translate(-253.000000, -40.000000) "></path>
            </g>
        </g>
    </g>
</svg>