<?xml version="1.0" encoding="UTF-8"?>
<svg width="17px" height="22px" viewBox="0 0 17 22" version="1.1" xmlns="http://www.w3.org/2000/svg" xmlns:xlink="http://www.w3.org/1999/xlink">
    <title>Group 7</title>
    <g id="Symbols" stroke="none" stroke-width="1" fill="none" fill-rule="evenodd" stroke-linecap="round" stroke-linejoin="round">
        <g id="header" transform="translate(-160.000000, -34.000000)" stroke="#8C9EC7" stroke-width="1.5">
            <g id="Group-3" transform="translate(32.000000, 26.000000)">
                <g id="profile" transform="translate(129.000000, 9.000000)">
                    <circle id="Oval" cx="7.579" cy="5.278" r="4.778"></circle>
                    <path d="M-1.57794314e-05,16.7013731 C-0.00126760558,16.3654831 0.0738531734,16.0336997 0.219695816,15.7311214 C0.677361723,14.8157895 1.96797958,14.3306637 3.0389178,14.110984 C3.81127745,13.9461621 4.59430539,13.8360488 5.38216724,13.7814646 C6.84083861,13.6533327 8.30793524,13.6533327 9.76660662,13.7814646 C10.5544024,13.8366774 11.3373865,13.9467845 12.1098561,14.110984 C13.1807943,14.3306637 14.4714121,14.770023 14.929078,15.7311214 C15.2223724,16.3479159 15.2223724,17.0639836 14.929078,17.6807781 C14.4714121,18.6418765 13.1807943,19.0812358 12.1098561,19.2917621 C11.3383994,19.4634099 10.5550941,19.5766219 9.76660662,19.6304349 C8.57936754,19.7310812 7.38658584,19.7494317 6.19681255,19.6853548 C5.92221301,19.6853548 5.65676678,19.6853548 5.38216724,19.6304349 C4.59663136,19.577285 3.8163184,19.4640631 3.04807112,19.2917621 C1.96797958,19.0812358 0.686515041,18.6418765 0.219695816,17.6807781 C0.0745982583,17.3746908 -0.000447947969,17.0401098 -1.57794314e-05,16.7013731 Z" id="Path"></path>
                </g>
            </g>
        </g>
    </g>
</svg>