<?xml version="1.0" encoding="UTF-8"?>
<svg width="178px" height="35px" viewBox="0 0 178 35" version="1.1" xmlns="http://www.w3.org/2000/svg" xmlns:xlink="http://www.w3.org/1999/xlink">
    <title>logoFa (1)</title>
    <g id="Page-1" stroke="none" stroke-width="1" fill="none" fill-rule="evenodd">
        <g id="login" transform="translate(-1054.000000, -68.000000)" fill="#FFFFFF">
            <g id="Group" transform="translate(592.000000, 0.000000)">
                <g id="logoFa-(1)" transform="translate(462.000000, 68.000000)">
                    <path d="M127.73877,15.7748544 C127.73877,17.0455294 127.307865,18.0643794 126.445895,18.8375294 C125.64398,19.5506544 124.661898,19.9102794 123.488975,19.9102794 L116.55307,19.9102794 L116.285765,19.9102794 C115.780786,19.9102794 115.366288,19.8051044 115.366288,19.2500044 L115.366288,17.4121544 C115.366288,16.8570544 115.780148,16.7518794 116.285765,16.7518794 L116.55307,16.7518794 L123.297975,16.7518794 C124.361778,16.7518794 124.896547,16.3383544 124.896547,15.5172544 C124.896547,15.0977794 124.754611,14.7141794 124.470898,14.3725794 L119.000231,7.98822942 L118.811301,7.78067942 C118.454152,7.38832942 118.228902,6.99177942 118.586052,6.59942942 L119.681237,5.39665442 C120.038386,5.00430442 120.398722,5.25122942 120.75635,5.64392942 L120.945438,5.85165442 L120.945279,5.85182942 L126.407663,12.1910294 C127.296873,13.2338544 127.73877,14.4264794 127.73877,15.7748544 L127.73877,15.7748544 Z" id="Path" fill-rule="nonzero"></path>
                    <path d="M49.2230959,20.3649544 C49.0852684,22.401807 48.5014548,24.1184137 47.4677484,25.5219751 C46.1832334,27.2774982 44.4474192,28.1521739 42.2604621,28.1521739 L39.5311022,28.1521739 C37.4940052,28.1521739 35.8063213,27.3654458 34.4791454,25.7978185 C33.1946304,24.2713363 32.5525292,22.3867204 32.5525292,20.1379707 L32.5525292,14.5602416 L32.5525292,14.272569 C32.5525292,13.7292826 32.6467582,13.2830299 33.1421247,13.2830299 L34.7243284,13.2830299 C35.2196948,13.2830299 35.3139239,13.7284254 35.3139239,14.272569 L35.3139239,14.5602416 L35.3139239,20.2730637 C35.3139239,21.7210274 35.7474086,22.8857759 36.6143781,23.7664519 C37.4493128,24.6294698 38.5303681,25.0580644 39.8469179,25.0580644 L41.9501158,25.0580644 C43.2666656,25.0580644 44.3381886,24.6222694 45.1665601,23.7487938 C45.9894623,22.8813185 46.4027886,21.7232561 46.4027886,20.2788926 L46.4027886,15.2715371 L46.4027886,12.3233211 L46.4027886,11.5960819 L46.4027886,11.3084093 C46.4027886,10.7649514 46.4968613,10.3188702 46.9923841,10.3188702 L48.6428764,10.3188702 C49.1383992,10.3188702 49.2324719,10.7642657 49.2324719,11.3084093 L49.2324719,11.5960819 L49.2324719,14.8415711 C49.2324719,15.7249901 49.3888952,16.3533096 49.6889279,16.6970425 C49.9859916,17.0378608 50.5373016,17.2212993 51.3266064,17.2212993 L52.1698233,17.2212993 L53.1969665,17.2212993 L54.5439883,17.2212993 L74.622739,17.2212993 L74.622739,14.9730639 L74.6230515,14.9730639 C74.6228952,11.7298034 72.2263841,9.10063318 69.2701244,9.10063318 L64.2803619,9.10063318 L64.2803619,6.00652362 L67.0409752,0.760869565 L70.2975801,0.760869565 L67.5369668,6.00652362 L69.2701244,6.00652362 L69.2701244,6.00686649 C73.7838975,6.00686649 77.44289,10.0210828 77.4430463,14.9730639 L77.4430463,17.2212993 L80.1167752,17.2212993 L80.9599921,17.2212993 C81.7492969,17.2212993 82.3006069,17.0378608 82.5976706,16.6970425 C82.8977033,16.3533096 83.0541266,15.7249901 83.0541266,14.8415711 L83.0541266,11.5960819 L83.0541266,11.3084093 C83.0541266,10.7649514 83.1481993,10.3188702 83.6437221,10.3188702 L85.2942144,10.3188702 C85.7897372,10.3188702 85.8838099,10.7642657 85.8838099,11.3084093 L85.8838099,11.5960819 L85.8838099,14.8415711 C85.8838099,15.7249901 86.0402332,16.3533096 86.3402659,16.6970425 C86.6373296,17.0378608 87.1886396,17.2212993 87.9779444,17.2212993 L88.8211613,17.2212993 L88.9921174,17.2212993 L91.1953263,17.2212993 L100.657295,17.2212993 L100.657295,14.9730639 L100.657607,14.9730639 C100.657451,11.7298034 98.26094,9.10063318 95.3046804,9.10063318 L91.2998689,9.10063318 L91.0376528,9.10063318 C90.5422864,9.10063318 90.1356795,8.99759905 90.1356795,8.45379833 L90.1356795,6.65335847 C90.1356795,6.10955774 90.5416613,6.00652362 91.0376528,6.00652362 L91.2998689,6.00652362 L95.3046804,6.00652362 L95.3046804,6.00686649 C99.8184535,6.00686649 103.477446,10.0210828 103.477602,14.9730639 L103.477602,17.2212993 L105.742693,17.2212993 L106.58591,17.2212993 C107.375215,17.2212993 107.926525,17.0378608 108.223588,16.6970425 C108.523621,16.3533096 108.680044,15.7249901 108.680044,14.8415711 L108.680044,11.5960819 L108.680044,11.3084093 C108.680044,10.7649514 108.774117,10.3188702 109.26964,10.3188702 L110.920132,10.3188702 C111.415655,10.3188702 111.509728,10.7642657 111.509728,11.3084093 L111.509728,11.5960819 L111.509728,15.2715371 C111.509728,16.6006944 111.142813,17.7836153 110.425078,18.7529246 C109.654369,19.7937236 108.648947,20.3256951 107.466631,20.3256951 L105.742693,20.3256951 L91.1953263,20.3258665 L90.921859,20.3258665 L88.9921174,20.3258665 L88.9921174,20.3256951 L88.8211613,20.3256951 L87.0972234,20.3256951 C86.076956,20.3256951 85.1885779,19.9295023 84.4689682,19.1522033 C83.7493586,19.9295023 82.8609805,20.3256951 81.8407131,20.3256951 L80.1167752,20.3256951 L54.5439883,20.3258665 L54.4347576,20.3258665 L53.1969665,20.3258665 L53.1969665,20.3256951 L52.1698233,20.3256951 L50.4458854,20.3256951 C50.0136508,20.3256951 49.6051688,20.254377 49.2230959,20.1134551 L49.2230959,20.3649544 L49.2230959,20.3649544 Z" id="Path" fill-rule="nonzero"></path>
                    <path d="M104.835784,24.6708 L110.564994,24.6708 L110.832299,24.6708 C111.337916,24.6708 111.751776,24.775975 111.751776,25.331075 L111.751776,27.168925 C111.751776,27.724025 111.337279,27.8292 110.832299,27.8292 L110.564994,27.8292 L104.835784,27.8292 L104.568479,27.8292 C104.063499,27.8292 103.649002,27.724025 103.649002,27.168925 L103.649002,25.331075 C103.649002,24.775975 104.062862,24.6708 104.568479,24.6708 L104.835784,24.6708 Z" id="Path"></path>
                    <path d="M94.9779465,24.6708 L95.4889796,24.6708 L95.7562844,24.6708 C96.2619013,24.6708 96.6757617,24.775975 96.6757617,25.331075 L96.6757617,27.168925 C96.6757617,27.724025 96.2612641,27.8292 95.7562844,27.8292 L95.4889796,27.8292 L94.9779465,27.8292 L94.7106417,27.8292 C94.2056619,27.8292 93.7911644,27.724025 93.7911644,27.168925 L93.7911644,25.331075 C93.7911644,24.775975 94.2050247,24.6708 94.7106417,24.6708 L94.9779465,24.6708 Z" id="Path"></path>
                    <path d="M78.5167177,24.6708 L84.2459282,24.6708 L84.513233,24.6708 C85.0188499,24.6708 85.4327103,24.775975 85.4327103,25.331075 L85.4327103,27.168925 C85.4327103,27.724025 85.0182127,27.8292 84.513233,27.8292 L84.2459282,27.8292 L78.5167177,27.8292 L78.249413,27.8292 C77.7444332,27.8292 77.3299356,27.724025 77.3299356,27.168925 L77.3299356,25.331075 C77.3299356,24.775975 77.743796,24.6708 78.249413,24.6708 L78.5167177,24.6708 Z" id="Path"></path>
                    <path d="M6.23745591,5.06489485 L6.23745591,10.6167162 L6.68859241,10.6167162 L7.54817311,10.6167162 C8.35279545,10.6167162 8.91480447,10.4356712 9.21763304,10.0992997 C9.52348829,9.76005179 9.6829472,9.13993034 9.6829472,8.26803788 L9.6829472,5.06489485 L9.6829472,4.78097566 C9.6829472,4.24460868 9.77884556,3.80434783 10.2839846,3.80434783 L11.9665071,3.80434783 C12.4716462,3.80434783 12.5675446,4.24393187 12.5675446,4.78097566 L12.5675446,5.06489485 L12.5675446,8.69239385 C12.5675446,10.0042088 12.1935091,11.1716953 11.461846,12.1283574 C10.6761803,13.1555763 9.65124658,13.6806068 8.44598572,13.6806068 L6.68859241,13.6806068 L6.23745591,13.6806068 L6.23745591,21.5655399 L6.23745591,21.8494591 C6.23745591,22.3865029 6.14139825,22.826087 5.63641848,22.826087 L3.96345397,22.826087 C3.4584742,22.826087 3.36241654,22.3856569 3.36241654,21.8494591 L3.36241654,21.5655399 L3.36241654,5.06489485 L3.36241654,4.78097566 C3.36241654,4.24477788 3.4583149,3.80434783 3.96329467,3.80434783 L5.63641848,3.80434783 C6.14139825,3.80434783 6.23745591,4.24393187 6.23745591,4.78097566 L6.23745591,5.06489485 L6.23745591,5.06489485 Z" id="Path"></path>
                    <path d="M19.0101022,5.06489485 L19.0101022,10.6268682 L20.4315326,10.6268682 L20.4315326,10.0487086 L20.4315326,8.18208381 C20.4315326,6.90377069 20.9267951,5.81225541 21.8929472,4.97877157 C22.7926714,4.20247764 23.8947061,3.80434783 25.1278444,3.80434783 L26.3123963,3.80434783 L26.5797011,3.80434783 C27.0843623,3.80434783 27.4991784,3.90637599 27.4991784,4.44257378 L27.4991784,6.22984333 C27.4991784,6.76604112 27.0853181,6.86823849 26.5797011,6.86823849 L26.3123963,6.86823849 L25.5273679,6.86823849 C24.706497,6.86823849 24.1226639,7.03760863 23.8032682,7.36247444 C23.4865805,7.68412543 23.31613,8.28106636 23.31613,9.13570032 L23.31613,10.0487086 L23.31613,10.6268682 L26.3123963,10.6268682 L26.5797011,10.6268682 C27.0845216,10.6268682 27.4991784,10.7287272 27.4991784,11.2650942 L27.4991784,13.0422117 C27.4991784,13.5785787 27.0853181,13.6806068 26.5797011,13.6806068 L26.3123963,13.6806068 L19.0101022,13.6806068 L19.0101022,21.5655399 L19.0101022,21.8494591 C19.0101022,22.3865029 18.9140445,22.826087 18.4090647,22.826087 L16.7361002,22.826087 C16.2311205,22.826087 16.1350628,22.3856569 16.1350628,21.8494591 L16.1350628,21.5655399 L16.1350628,5.06489485 L16.1350628,4.78097566 C16.1350628,4.24477788 16.2309612,3.80434783 16.7359409,3.80434783 L18.4090647,3.80434783 C18.9140445,3.80434783 19.0101022,4.24393187 19.0101022,4.78097566 L19.0101022,5.06489485 L19.0101022,5.06489485 Z" id="Path"></path>
                    <path d="M162.31086,13.8492283 L162.498437,14.0554764 C162.852874,14.4451913 163.21158,14.6910891 163.566017,14.3013742 L166.046596,11.574065 C166.401033,11.18435 166.178027,10.7906353 165.822958,10.4003986 L165.635222,10.1939766 L157.754432,1.52860088 L157.763763,1.51834064 C156.910649,0.580137943 155.731883,0 154.430069,0 C153.128255,0 151.949806,0.580311846 151.096533,1.51834064 L151.105706,1.52860088 L137.726645,16.239341 L137.53891,16.4457629 C137.183841,16.8359996 136.960835,17.2297143 137.315271,17.6194293 L139.795851,20.3467385 C140.150287,20.7364534 140.508994,20.4905556 140.86343,20.1008407 L141.051008,19.8945926 L154.430069,5.1838525 L162.31086,13.8492283 Z" id="Path"></path>
                    <path d="M160.706118,22.9683214 L174.085179,8.25758133 L174.272756,8.05133325 C174.627193,7.66161828 174.985899,7.41572048 175.340336,7.80543545 L177.820915,10.5327446 C178.175352,10.9224596 177.952346,11.3161743 177.597277,11.706411 L177.409541,11.912833 L164.03048,26.623573 L164.039654,26.6338333 C163.186381,27.5718621 162.007932,28.1521739 160.706118,28.1521739 C159.404304,28.1521739 158.225538,27.572036 157.372424,26.6338333 L157.381755,26.623573 L149.500964,17.9581973 L149.313229,17.7517753 C148.95816,17.3615386 148.735154,16.9678239 149.089591,16.5781089 L151.57017,13.8507998 C151.924606,13.4610848 152.283313,13.7069826 152.637749,14.0966976 L152.825327,14.3029456 L160.706118,22.9683214 L160.706118,22.9683214 L160.706118,22.9683214 Z" id="Path"></path>
                </g>
            </g>
        </g>
    </g>
</svg>