<?xml version="1.0" encoding="UTF-8"?>
<svg width="19px" height="22px" viewBox="0 0 19 22" version="1.1" xmlns="http://www.w3.org/2000/svg" xmlns:xlink="http://www.w3.org/1999/xlink">
    <title>notification</title>
    <g id="Symbols" stroke="none" stroke-width="1" fill="none" fill-rule="evenodd" stroke-linecap="round" stroke-linejoin="round">
        <g id="header" transform="translate(-200.000000, -34.000000)" stroke="#8C9EC7" stroke-width="1.5">
            <g id="Group-3" transform="translate(32.000000, 26.000000)">
                <g id="notification" transform="translate(168.500000, 9.000000)">
                    <path d="M0.500825455,11.7871203 L0.500825455,11.568135 C0.532951275,10.9202451 0.740598836,10.2924906 1.10235562,9.74960514 C1.70450201,9.09746185 2.11670318,8.29830554 2.29571385,7.43597814 C2.29571385,6.76950123 2.29571385,6.09350321 2.35392645,5.4270263 C2.65469153,2.21841601 5.82727806,3.37507799e-14 8.96105618,3.37507799e-14 L9.03867298,3.37507799e-14 C12.1724511,3.37507799e-14 15.3450376,2.21841601 15.6555048,5.4270263 C15.7137174,6.09350321 15.6555048,6.76950123 15.7040153,7.43597814 C15.8854338,8.30030508 16.2972211,9.10194449 16.8973735,9.75912624 C17.2618363,10.2972046 17.4698126,10.9226612 17.4989037,11.568135 L17.4989037,11.7775992 C17.5205591,12.6480449 17.220769,13.4968208 16.6548211,14.167395 C15.9069586,14.9514753 14.892113,15.4392693 13.8024038,15.5384332 C10.6069938,15.8812057 7.3830333,15.8812057 4.18762325,15.5384332 C3.09914366,15.4349924 2.08575794,14.9479001 1.33520601,14.167395 C0.778,13.496309 0.482240668,12.6525831 0.500825455,11.7871203 Z M6.55493552,18.8517756 C7.05421005,19.478449 7.78739599,19.8840184 8.59222803,19.978725 C9.39706007,20.0734316 10.2071683,19.8494655 10.8432635,19.3563938 C11.0389031,19.2105605 11.2149406,19.0410062 11.3671768,18.8517756" id="Shape"></path>
                </g>
            </g>
        </g>
    </g>
</svg>