<?xml version="1.0" encoding="UTF-8"?>
<svg width="17px" height="21px" viewBox="0 0 17 21" version="1.1" xmlns="http://www.w3.org/2000/svg" xmlns:xlink="http://www.w3.org/1999/xlink">
    <title>Group 4</title>
    <g id="Page-1" stroke="none" stroke-width="1" fill="none" fill-rule="evenodd">
        <g id="dashboard" transform="translate(-160.000000, -295.000000)" fill="#A4A6B4">
            <g id="Group-4" transform="translate(160.614993, 295.684362)">
                <path d="M13.7543903,6.18672921 C13.9496524,6.38199136 13.9496524,6.69857385 13.7543903,6.89383599 L4.09200656,16.5552826 L9.88500656,16.5561129 C10.1611489,16.5561129 10.3850066,16.7799706 10.3850066,17.0561129 C10.3850066,17.3322553 10.1611489,17.5561129 9.88500656,17.5561129 L2.88500656,17.5561129 L2.87346579,17.5559806 C2.85260538,17.555502 2.83176922,17.5537255 2.81108879,17.5506511 L2.88500656,17.5561129 C2.84890951,17.5561129 2.81370588,17.5522878 2.7797789,17.5450207 C2.7645323,17.5417168 2.74917185,17.5376649 2.73399492,17.5328716 C2.72026971,17.5285549 2.70698149,17.5237045 2.69396999,17.5183207 C2.68046769,17.5127615 2.66673087,17.5063633 2.65324837,17.499308 C2.64095988,17.4928196 2.62932409,17.4860936 2.61799624,17.4789249 C2.60617192,17.4715036 2.5943974,17.4633384 2.58291405,17.4546103 C2.56973575,17.4445599 2.55711664,17.4339557 2.54505091,17.4227632 C2.54031892,17.4183712 2.53585521,17.4140684 2.53145316,17.4096663 L2.51645961,17.3940124 C2.50727385,17.3839989 2.49849086,17.3736099 2.49013631,17.3628711 L2.53145316,17.4096663 C2.50468563,17.3828988 2.48158752,17.3538514 2.46215885,17.3231491 C2.45432495,17.3107016 2.44687305,17.2976866 2.44000553,17.2843221 C2.43433046,17.2733393 2.42902586,17.2619632 2.42417235,17.2504422 C2.41805192,17.2359203 2.41266716,17.2212773 2.40796538,17.2063315 C2.40332716,17.1914639 2.39935056,17.1763433 2.39609224,17.1611 C2.39391059,17.1511248 2.39203446,17.1407933 2.39048087,17.1303564 C2.38734476,17.1090187 2.38556092,17.0878459 2.38511691,17.0666503 C2.38504784,17.0636035 2.38500656,17.059863 2.38500656,17.0561129 L2.38513893,17.0445722 C2.38561472,17.0238352 2.38737307,17.0031222 2.39041399,16.9825623 L2.38500656,17.0561129 C2.38500656,17.0199514 2.38884538,16.9846866 2.39613775,16.9507036 C2.39954324,16.9350224 2.40371526,16.91931 2.40866355,16.9037916 C2.4129725,16.8902618 2.41764084,16.8775421 2.42279879,16.8650764 C2.42829163,16.8517167 2.43471954,16.8379072 2.44181152,16.8243548 C2.4482999,16.8120663 2.45502589,16.8004305 2.46219456,16.7891026 C2.4696159,16.7772783 2.47778109,16.7655038 2.48650916,16.7540204 C2.49692681,16.7403587 2.50794576,16.7272943 2.5195953,16.7148265 C2.52336351,16.710788 2.52736555,16.7066472 2.53145316,16.7025596 L13.0472835,6.18672921 C13.2425457,5.99146707 13.5591281,5.99146707 13.7543903,6.18672921 Z" id="Combined-Shape" transform="translate(8.142922, 11.798198) rotate(45.000000) translate(-8.142922, -11.798198) "></path>
                <path d="M13.7543903,2.53145316 C13.9496524,2.72671531 13.9496524,3.0432978 13.7543903,3.23855995 L4.09200656,12.9000066 L9.88500656,12.9008369 C10.1611489,12.9008369 10.3850066,13.1246945 10.3850066,13.4008369 C10.3850066,13.6769793 10.1611489,13.9008369 9.88500656,13.9008369 L2.88500656,13.9008369 L2.87346579,13.9007045 C2.85260538,13.9002259 2.83176922,13.8984494 2.81108879,13.895375 L2.88500656,13.9008369 C2.84890951,13.9008369 2.81370588,13.8970117 2.7797789,13.8897447 C2.7645323,13.8864408 2.74917185,13.8823889 2.73399492,13.8775956 C2.72026971,13.8732788 2.70698149,13.8684284 2.69396999,13.8630447 C2.68046769,13.8574854 2.66673087,13.8510873 2.65324837,13.8440319 C2.64095988,13.8375436 2.62932409,13.8308176 2.61799624,13.8236489 C2.60617192,13.8162276 2.5943974,13.8080624 2.58291405,13.7993343 C2.56973575,13.7892838 2.55711664,13.7786796 2.54505091,13.7674871 C2.54031892,13.7630951 2.53585521,13.7587923 2.53145316,13.7543903 L2.51645961,13.7387364 C2.50727385,13.7287229 2.49849086,13.7183338 2.49013631,13.707595 L2.53145316,13.7543903 C2.50468563,13.7276228 2.48158752,13.6985753 2.46215885,13.6678731 C2.45432495,13.6554255 2.44687305,13.6424106 2.44000553,13.629046 C2.43433046,13.6180632 2.42902586,13.6066872 2.42417235,13.5951662 C2.41805192,13.5806443 2.41266716,13.5660013 2.40796538,13.5510555 C2.40332716,13.5361879 2.39935056,13.5210673 2.39609224,13.505824 C2.39391059,13.4958488 2.39203446,13.4855172 2.39048087,13.4750804 C2.38734476,13.4537427 2.38556092,13.4325699 2.38511691,13.4113743 C2.38504784,13.4083274 2.38500656,13.404587 2.38500656,13.4008369 L2.38513893,13.3892961 C2.38561472,13.3685592 2.38737307,13.3478461 2.39041399,13.3272863 L2.38500656,13.4008369 C2.38500656,13.3646754 2.38884538,13.3294105 2.39613775,13.2954275 C2.39954324,13.2797463 2.40371526,13.264034 2.40866355,13.2485155 C2.4129725,13.2349857 2.41764084,13.222266 2.42279879,13.2098003 C2.42829163,13.1964406 2.43471954,13.1826312 2.44181152,13.1690787 C2.4482999,13.1567902 2.45502589,13.1451544 2.46219456,13.1338266 C2.4696159,13.1220023 2.47778109,13.1102277 2.48650916,13.0987444 C2.49692681,13.0850827 2.50794576,13.0720182 2.5195953,13.0595505 C2.52336351,13.0555119 2.52736555,13.0513711 2.53145316,13.0472835 L13.0472835,2.53145316 C13.2425457,2.33619102 13.5591281,2.33619102 13.7543903,2.53145316 Z" id="Combined-Shape" transform="translate(8.142922, 8.142922) scale(-1, -1) rotate(45.000000) translate(-8.142922, -8.142922) "></path>
            </g>
        </g>
    </g>
</svg>